Coordinates
version=1
nRows=16
nColumns=36
inDegrees=yes

Units are S.I. units (second, meters, Newtons, ...)
If the header above contains a line with 'inDegrees', this indicates whether rotational values are in degrees (yes) or radians (no).

endheader
time	pelvis_tilt	pelvis_list	pelvis_rotation	pelvis_tx	pelvis_ty	pelvis_tz	hip_flexion_r	hip_adduction_r	hip_rotation_r	knee_angle_r	knee_angle_r_beta	ankle_angle_r	subtalar_angle_r	mtp_angle_r	hip_flexion_l	hip_adduction_l	hip_rotation_l	knee_angle_l	knee_angle_l_beta	ankle_angle_l	subtalar_angle_l	mtp_angle_l	lumbar_extension	lumbar_bending	lumbar_rotation	arm_flex_r	arm_add_r	arm_rot_r	elbow_flex_r	pro_sup_r	arm_flex_l	arm_add_l	arm_rot_l	elbow_flex_l	pro_sup_l
      3.28000000	    -21.63248092	     -2.71529479	     -4.65280385	     -0.33749392	      0.73958445	     -0.60930020	     80.85194601	     -6.61972350	     -2.37311441	     90.34411098	      1.57680220	     33.12013682	     -5.32583894	     -7.49999980	     84.04086327	    -22.75628491	      3.56095704	     90.52197927	      1.57990658	     33.50407459	      3.08017309	     -7.49999980	    -24.34429773	      6.87443367	     -0.05827543	      1.60082047	     -9.84912405	    -15.80006296	     71.10781698	    101.67874676	     -3.81548082	     -9.62252085	    -17.78109549	     65.46284591	     90.60656250
      3.29000000	    -21.57556981	     -2.76786855	     -4.68978465	     -0.33849940	      0.73595867	     -0.60959569	     81.26083394	     -6.63718966	     -2.35771059	     90.93238696	      1.58706955	     33.19351264	     -5.33617665	     -7.49999980	     84.52349422	    -22.67698125	      3.90831781	     91.15371552	      1.59093246	     33.59313235	      2.89201425	     -7.49999980	    -24.75199651	      6.97104863	     -0.06530464	      1.80350819	     -9.73699358	    -15.78740402	     71.17888337	    101.63339536	     -3.55041760	     -9.78816727	    -17.79946242	     65.47280033	     90.54581736
      3.30000000	    -21.53118364	     -2.82651786	     -4.74675003	     -0.33944016	      0.73244253	     -0.60987432	     81.65491372	     -6.63594573	     -2.35048591	     91.49611839	      1.59690852	     33.27761345	     -5.34335563	     -7.49999980	     85.01418493	    -22.64578758	      4.23863827	     91.77045143	      1.60169653	     33.64440925	      2.73999260	     -7.49999980	    -25.13126731	      7.06186733	     -0.02578457	      1.95706121	     -9.63003961	    -15.78016655	     71.24965046	    101.58709310	     -3.30885783	     -9.93834022	    -17.83996006	     65.46153639	     90.48861197
      3.31000000	    -21.50898345	     -2.86977853	     -4.80643538	     -0.34037012	      0.72915137	     -0.61019672	     82.05441762	     -6.67989528	     -2.36392079	     92.00814078	      1.60584500	     33.35763087	     -5.32531158	     -7.49999980	     85.47974169	    -22.62337196	      4.52242986	     92.32096789	      1.61130486	     33.68253235	      2.61761894	     -7.49999980	    -25.48226826	      7.14434020	      0.01360670	      2.10486932	     -9.51856850	    -15.76483435	     71.34335212	    101.54432759	     -3.03142314	    -10.08745588	    -17.86401608	     65.45065372	     90.43446363
      3.32000000	    -21.48799210	     -2.90769592	     -4.82372191	     -0.34122297	      0.72605911	     -0.61052406	     82.45387896	     -6.82498189	     -2.44439138	     92.51912883	      1.61476342	     33.42114949	     -5.23946195	     -7.49999980	     85.91003951	    -22.58469747	      4.76993109	     92.82835236	      1.62016039	     33.72094891	      2.51106043	     -7.49999980	    -25.80016669	      7.23722300	      0.04007973	      2.21695628	     -9.41099967	    -15.74815466	     71.46898475	    101.49620508	     -2.73109460	    -10.22741718	    -17.83894513	     65.42333349	     90.36638863
      3.33000000	    -21.46095908	     -2.92812685	     -4.84466532	     -0.34202703	      0.72319357	     -0.61080937	     82.81604501	     -6.98428562	     -2.52527077	     92.99253353	      1.62302589	     33.47808820	     -5.10930808	     -7.49999980	     86.28568912	    -22.57472028	      4.95325855	     93.28315050	      1.62809811	     33.75593681	      2.44179252	     -7.49999980	    -26.12961769	      7.31817429	      0.10476200	      2.32840803	     -9.31287884	    -15.71637867	     71.59783065	    101.44512805	     -2.39066200	    -10.37901501	    -17.77904210	     65.39397166	     90.29199945
      3.34000000	    -21.48146095	     -2.98238425	     -4.89255476	     -0.34273295	      0.72039285	     -0.61101283	     83.16224481	     -7.06284580	     -2.56908909	     93.42326953	      1.63054365	     33.83074226	     -4.55588339	     -7.49999980	     86.73700882	    -22.65679434	      5.15511143	     93.74827355	      1.63621604	     33.78872631	      2.50673632	     -7.49999980	    -26.39344363	      7.44369241	      0.47135082	      2.14240232	     -9.29951722	    -15.88527655	     72.03624607	    101.11756093	     -1.91342080	    -10.57719758	    -17.27939877	     65.18221316	     89.89857332
      3.35000000	    -21.43957572	     -2.92975953	     -4.94383383	     -0.34350798	      0.71812933	     -0.61123358	     83.43160908	     -7.14387566	     -2.53007728	     93.73414688	      1.63596948	     33.85994921	     -4.58325849	     -7.49999980	     86.98841429	    -22.72991255	      5.17343038	     94.08096722	      1.64202264	     33.81179462	      2.48858068	     -7.49999980	    -26.74840852	      7.44434154	      0.52839138	      2.36774939	     -9.20009851	    -15.84009273	     72.06044107	    101.10000616	     -1.60168534	    -10.72496360	    -17.28977634	     65.21841831	     89.87988426
      3.36000000	    -21.36800720	     -2.85063245	     -5.00967682	     -0.34408661	      0.71587334	     -0.61141515	     83.70826871	     -7.23754938	     -2.46255862	     94.14216778	      1.64309079	     33.88513163	     -4.55482248	     -7.49999980	     87.20394465	    -22.82605273	      5.15179447	     94.48086821	      1.64900223	     33.82632128	      2.51954629	     -7.49999980	    -27.06284048	      7.43144213	      0.57828216	      2.46701293	     -9.12062915	    -15.80589246	     72.08958015	    101.06440742	     -1.40870822	    -10.87095432	    -17.25434856	     65.23313465	     89.84155586
      3.37000000	    -21.33830074	     -2.64480001	     -5.02794877	     -0.34472667	      0.71392847	     -0.61151586	     84.03012636	     -7.40446430	     -2.25396297	     94.49430915	      1.64923682	     34.00866248	     -4.19516452	     -7.49999980	     87.33326820	    -22.86154732	      4.96925161	     94.73342727	      1.65341022	     33.94255802	      2.76663354	     -7.49999980	    -27.34654682	      7.27987556	      0.64074973	      2.54298316	     -8.99897271	    -15.84012988	     72.28397514	    100.88673070	     -1.17270970	    -11.13723706	    -16.94374231	     65.37522520	     89.65188318
      3.38000000	    -21.23133891	     -2.54905205	     -5.03128151	     -0.34525569	      0.71228898	     -0.61157882	     84.18153338	     -7.49773238	     -2.14652051	     94.79063956	      1.65440876	     34.22256982	     -4.01884281	     -7.49999981	     87.42228315	    -22.88386554	      4.92483631	     95.01239522	      1.65827913	     34.08795740	      2.91634401	     -7.49999981	    -27.70921679	      7.24266687	      0.71112809	      2.66326044	     -8.94808517	    -15.60345254	     72.68097227	     95.73222956	     -0.94773864	    -11.38987081	    -16.62311012	     65.87977127	     85.66125039
      3.39000000	    -21.24020896	     -2.37008675	     -5.07166926	     -0.34582721	      0.71063023	     -0.61153900	     84.48675975	     -7.55108721	     -1.97377890	     95.06091476	      1.65912595	     34.22750530	     -4.04783397	     -7.49999983	     87.58764663	    -22.92363911	      4.78216005	     95.23871944	      1.66222923	     34.02112944	      2.87787299	     -7.49999983	    -27.90629041	      7.13117602	      0.76374309	      2.78453608	     -8.83237241	    -15.72304784	     72.44280605	     98.60447929	     -0.79737381	    -11.57360464	    -16.52018844	     65.97470564	     85.93714064
      3.40000000	    -21.28946686	     -2.21156993	     -5.06175727	     -0.34635967	      0.70911609	     -0.61157433	     84.80013920	     -7.62570502	     -1.79851799	     95.30629950	      1.66340872	     34.25056151	     -4.11348573	     -7.49999984	     87.77024759	    -22.87489051	      4.68519807	     95.42730154	      1.66552061	     34.00090759	      2.80774780	     -7.49999984	    -28.05321510	      7.05215732	      0.71824288	      2.86870979	     -8.91019826	    -15.13454034	     72.91774026	     92.17078723	     -0.74118405	    -11.79432021	    -16.32140709	     66.70721051	     81.50239891
      3.41000000	    -21.17481681	     -1.96986108	     -5.02191479	     -0.34678696	      0.70796561	     -0.61153916	     84.97475655	     -7.73267948	     -1.48623964	     95.59683751	      1.66847957	     34.30466598	     -3.94909010	     -7.49999985	     87.69738606	    -22.80067599	      4.45713887	     95.58546033	      1.66828100	     34.04258587	      2.86202233	     -7.49999985	    -28.35738761	      6.87598166	      0.60408231	      3.02526343	     -8.85926646	    -15.29418713	     72.44334930	     98.53134117	     -0.66430551	    -11.94387872	    -16.50771450	     66.52315771	     85.05186913
      3.42000000	    -21.13538666	     -1.82425400	     -5.03456591	     -0.34714077	      0.70685690	     -0.61132194	     85.16305350	     -7.70890268	     -1.25015031	     95.82689300	      1.67249479	     34.40869668	     -3.84706260	     -7.49999986	     87.74152063	    -22.80725470	      4.36280345	     95.74461166	      1.67105871	     34.12810078	      3.02245573	     -7.49999986	    -28.57984941	      6.76433576	      0.66820388	      3.06773511	     -8.92555537	    -14.95663932	     72.77727025	     94.83002881	     -0.53963199	    -12.11077367	    -16.37686109	     66.93624533	     82.52764783
      3.43000000	    -21.15927649	     -1.70890342	     -5.07273011	     -0.34747987	      0.70581292	     -0.61110931	     85.37847794	     -7.62280164	     -1.06554039	     95.98935559	      1.67533030	     34.29407212	     -4.06741312	     -7.49999986	     87.86023869	    -22.83686275	      4.28918981	     95.87913259	      1.67340655	     34.02199390	      2.92937391	     -7.49999986	    -28.70447407	      6.68448904	      0.80228743	      3.08198789	     -8.97150557	    -15.16271115	     72.54430898	     98.79670688	     -0.38750684	    -12.24314508	    -16.38515559	     66.61001562	     85.29863044
